<?xml version="1.0" encoding="utf-8"?>
<!-- Generator: Adobe Illustrator 27.6.1, SVG Export Plug-In . SVG Version: 6.00 Build 0)  -->
<svg version="1.1" id="Layer_1" xmlns="http://www.w3.org/2000/svg" xmlns:xlink="http://www.w3.org/1999/xlink" x="0px" y="0px"
	 viewBox="0 0 314 376" style="enable-background:new 0 0 314 376;" xml:space="preserve">
<style type="text/css">
	.st0{fill:#215E70;}
	.st1{fill:#799DA9;}
	.st2{fill:#FFFFFF;}
</style>
<rect x="0" class="st0" width="314" height="376"/>
<g>
	<path class="st1" d="M266,74.7H48c-16.6,0-30-13.4-30-30v-4c0-8.8,7.2-16,16-16h246c8.8,0,16,7.2,16,16v4
		C296,61.3,282.6,74.7,266,74.7z"/>
	<path class="st1" d="M237,143.9H77c-16.6,0-30-13.4-30-30v-4c0-8.8,7.2-16,16-16h188c8.8,0,16,7.2,16,16v4
		C267,130.4,253.6,143.9,237,143.9z"/>
	<path class="st1" d="M207,213H107c-16.6,0-30-13.4-30-30v-4c0-8.8,7.2-16,16-16h128c8.8,0,16,7.2,16,16v4
		C237,199.6,223.6,213,207,213z"/>
	<path class="st2" d="M182,282.1h-50c-16.6,0-30-13.4-30-30v-4c0-8.8,7.2-16,16-16h78c8.8,0,16,7.2,16,16v4
		C212,268.7,198.6,282.1,182,282.1z"/>
	<path class="st2" d="M144.5,342.9l-4.9-9c-7.4-13.7,0.2-32.6,13.1-32.6h8.5c12.9,0,20.5,18.9,13.1,32.6l-4.9,9
		C163.4,354.1,150.6,354.1,144.5,342.9z"/>
</g>
</svg>
